<svg width="32" height="25" viewBox="0 0 32 25" fill="none" xmlns="http://www.w3.org/2000/svg">
<path d="M28.125 21.875H25V8.20312L15.625 14.0625L6.25 8.20312V21.875H3.125V3.125H5L15.625 9.76562L26.25 3.125H28.125V21.875ZM28.125 0H3.125C1.39062 0 0 1.39062 0 3.125V21.875C0 22.7038 0.32924 23.4987 0.915291 24.0847C1.50134 24.6708 2.2962 25 3.125 25H28.125C28.9538 25 29.7487 24.6708 30.3347 24.0847C30.9208 23.4987 31.25 22.7038 31.25 21.875V3.125C31.25 2.2962 30.9208 1.50134 30.3347 0.915291C29.7487 0.32924 28.9538 0 28.125 0Z" fill="#4A4A4A"/>
</svg>
