<svg width="500" height="500" viewBox="0 0 500 500" fill="none" xmlns="http://www.w3.org/2000/svg">
<path d="M250 500C217.17 500 184.661 493.534 154.329 480.97C123.998 468.406 96.438 449.991 73.2233 426.777C50.0087 403.562 31.5938 376.002 19.0301 345.671C6.46643 315.339 -1.4855e-06 282.83 -1.31306e-06 250C-1.14063e-06 217.17 6.46643 184.661 19.0301 154.329C31.5938 123.998 50.0087 96.4379 73.2233 73.2233C96.438 50.0086 123.998 31.5938 154.329 19.0301C184.661 6.46643 217.17 -4.35563e-06 250 -1.31306e-06L250 250L250 500Z" fill="#005F57"/>
<path d="M250 1.31306e-06C316.304 1.66131e-06 379.893 26.3392 426.777 73.2233C473.661 120.107 500 183.696 500 250C500 316.304 473.661 379.893 426.777 426.777C379.893 473.661 316.304 500 250 500L250 250L250 1.31306e-06Z" fill="#012169"/>
<circle cx="250" cy="250" r="175" fill="#FEF01E"/>
</svg>
